<?xml version="1.0" encoding="UTF-8" standalone="no"?>
<!DOCTYPE svg PUBLIC "-//W3C//DTD SVG 1.1//EN"
 "http://www.w3.org/Graphics/SVG/1.1/DTD/svg11.dtd">
<!-- Generated by graphviz version 12.0.0 (20240704.0754)
 -->
<!-- Title: G Pages: 1 -->
<svg width="815pt" height="716pt"
 viewBox="0.00 0.00 814.95 716.13" xmlns="http://www.w3.org/2000/svg" xmlns:xlink="http://www.w3.org/1999/xlink">
<g id="graph0" class="graph" transform="scale(1 1) rotate(0) translate(4 712.13)">
<title>G</title><style>.edge>path:hover{stroke-width:8}</style>
<polygon fill="white" stroke="none" points="-4,4 -4,-712.13 810.95,-712.13 810.95,4 -4,4"/>
<!-- __init___py -->
<g id="node1" class="node">
<title>__init___py</title><style>.edge>path:hover{stroke-width:8}</style>
<ellipse fill="#713c3c" stroke="black" cx="355.36" cy="-18" rx="38.03" ry="18"/>
<text text-anchor="middle" x="355.36" y="-14.5" font-family="Helvetica,sans-Serif" font-size="10.00" fill="#ffffff">__init__.py</text>
</g>
<!-- concurrent_futures_ThreadPoolExecutor -->
<g id="node2" class="node">
<title>concurrent_futures_ThreadPoolExecutor</title><style>.edge>path:hover{stroke-width:8}</style>
<ellipse fill="#85b653" stroke="black" cx="73.36" cy="-677.01" rx="73.36" ry="31.11"/>
<text text-anchor="middle" x="73.36" y="-685.51" font-family="Helvetica,sans-Serif" font-size="10.00" fill="#000000">concurrent.</text>
<text text-anchor="middle" x="73.36" y="-673.51" font-family="Helvetica,sans-Serif" font-size="10.00" fill="#000000">futures.</text>
<text text-anchor="middle" x="73.36" y="-661.51" font-family="Helvetica,sans-Serif" font-size="10.00" fill="#000000">ThreadPoolExecutor</text>
</g>
<!-- reactk_model_context -->
<g id="node7" class="node">
<title>reactk_model_context</title><style>.edge>path:hover{stroke-width:8}</style>
<ellipse fill="#7a24d0" stroke="black" cx="206.36" cy="-382.34" rx="34.12" ry="31.11"/>
<text text-anchor="middle" x="206.36" y="-390.84" font-family="Helvetica,sans-Serif" font-size="10.00" fill="#ffffff">reactk.</text>
<text text-anchor="middle" x="206.36" y="-378.84" font-family="Helvetica,sans-Serif" font-size="10.00" fill="#ffffff">model.</text>
<text text-anchor="middle" x="206.36" y="-366.84" font-family="Helvetica,sans-Serif" font-size="10.00" fill="#ffffff">context</text>
</g>
<!-- concurrent_futures_ThreadPoolExecutor&#45;&gt;reactk_model_context -->
<g id="edge1" class="edge">
<title>concurrent_futures_ThreadPoolExecutor&#45;&gt;reactk_model_context</title><style>.edge>path:hover{stroke-width:8}</style>
<path fill="none" stroke="black" d="M206.36,-577.79C221.99,-526.82 218.34,-464.74 213.25,-424.66"/>
<polygon fill="#85b653" stroke="black" points="216.74,-424.39 211.92,-414.96 209.81,-425.34 216.74,-424.39"/>
<path fill="none" stroke="black" d="M126.88,-655.35C157.86,-639.94 193.25,-615.35 206.36,-579.79"/>
</g>
<!-- logging_getLogger -->
<g id="node3" class="node">
<title>logging_getLogger</title><style>.edge>path:hover{stroke-width:8}</style>
<ellipse fill="#53b6b6" stroke="black" cx="206.36" cy="-677.01" rx="41.54" ry="22.63"/>
<text text-anchor="middle" x="206.36" y="-679.51" font-family="Helvetica,sans-Serif" font-size="10.00" fill="#000000">logging.</text>
<text text-anchor="middle" x="206.36" y="-667.51" font-family="Helvetica,sans-Serif" font-size="10.00" fill="#000000">getLogger</text>
</g>
<!-- logging_getLogger&#45;&gt;reactk_model_context -->
<g id="edge2" class="edge">
<title>logging_getLogger&#45;&gt;reactk_model_context</title><style>.edge>path:hover{stroke-width:8}</style>
<path fill="none" stroke="black" d="M202.77,-654.07C200.35,-634.21 198.82,-604.39 206.36,-579.79"/>
</g>
<!-- reactk -->
<g id="node4" class="node">
<title>reactk</title><style>.edge>path:hover{stroke-width:8}</style>
<ellipse fill="#5708a5" stroke="black" cx="355.36" cy="-127" rx="27" ry="18"/>
<text text-anchor="middle" x="355.36" y="-123.5" font-family="Helvetica,sans-Serif" font-size="10.00" fill="#ffffff">reactk</text>
</g>
<!-- reactk&#45;&gt;__init___py -->
<g id="edge3" class="edge">
<title>reactk&#45;&gt;__init___py</title><style>.edge>path:hover{stroke-width:8}</style>
<path fill="none" stroke="black" d="M359.46,-109.14C361.2,-98.14 361.58,-83.86 355.36,-73"/>
</g>
<!-- reactk_model -->
<g id="node5" class="node">
<title>reactk_model</title><style>.edge>path:hover{stroke-width:8}</style>
<ellipse fill="#660ac2" stroke="black" cx="363.36" cy="-199" rx="43.45" ry="18"/>
<text text-anchor="middle" x="363.36" y="-195.5" font-family="Helvetica,sans-Serif" font-size="10.00" fill="#ffffff">reactk.model</text>
</g>
<!-- reactk_model&#45;&gt;__init___py -->
<g id="edge4" class="edge">
<title>reactk_model&#45;&gt;__init___py</title><style>.edge>path:hover{stroke-width:8}</style>
<path fill="none" stroke="black" d="M334.11,-185.24C307.55,-171.86 274.99,-149.79 292.36,-128"/>
</g>
<!-- reactk_model&#45;&gt;reactk -->
<g id="edge5" class="edge">
<title>reactk_model&#45;&gt;reactk</title><style>.edge>path:hover{stroke-width:8}</style>
<path fill="none" stroke="black" d="M361.38,-180.7C360.55,-173.41 359.56,-164.73 358.62,-156.54"/>
<polygon fill="#660ac2" stroke="black" points="362.1,-156.15 357.49,-146.61 355.15,-156.94 362.1,-156.15"/>
</g>
<!-- reactk_model_component -->
<g id="node6" class="node">
<title>reactk_model_component</title><style>.edge>path:hover{stroke-width:8}</style>
<ellipse fill="#702db4" stroke="black" cx="327.36" cy="-284.11" rx="45.25" ry="31.11"/>
<text text-anchor="middle" x="327.36" y="-292.61" font-family="Helvetica,sans-Serif" font-size="10.00" fill="#ffffff">reactk.</text>
<text text-anchor="middle" x="327.36" y="-280.61" font-family="Helvetica,sans-Serif" font-size="10.00" fill="#ffffff">model.</text>
<text text-anchor="middle" x="327.36" y="-268.61" font-family="Helvetica,sans-Serif" font-size="10.00" fill="#ffffff">component</text>
</g>
<!-- reactk_model_component&#45;&gt;__init___py -->
<g id="edge6" class="edge">
<title>reactk_model_component&#45;&gt;__init___py</title><style>.edge>path:hover{stroke-width:8}</style>
<path fill="none" stroke="black" d="M309.08,-255.47C300.48,-239.84 292.14,-219.57 292.36,-200"/>
<path fill="none" stroke="black" d="M292.36,-198C292.71,-166.89 272.97,-152.33 292.36,-128"/>
</g>
<!-- reactk_model_component&#45;&gt;reactk -->
<g id="edge7" class="edge">
<title>reactk_model_component&#45;&gt;reactk</title><style>.edge>path:hover{stroke-width:8}</style>
<path fill="none" stroke="black" d="M292.36,-198C292.6,-176.27 309.58,-158.23 325.84,-145.92"/>
<polygon fill="#702db4" stroke="black" points="327.8,-148.82 333.97,-140.21 323.77,-143.09 327.8,-148.82"/>
</g>
<!-- reactk_model_component&#45;&gt;reactk_model -->
<g id="edge8" class="edge">
<title>reactk_model_component&#45;&gt;reactk_model</title><style>.edge>path:hover{stroke-width:8}</style>
<path fill="none" stroke="black" d="M339.95,-254.04C343.68,-245.45 347.74,-236.07 351.42,-227.58"/>
<polygon fill="#702db4" stroke="black" points="354.61,-229.01 355.37,-218.45 348.19,-226.23 354.61,-229.01"/>
</g>
<!-- reactk_model_context&#45;&gt;__init___py -->
<g id="edge9" class="edge">
<title>reactk_model_context&#45;&gt;__init___py</title><style>.edge>path:hover{stroke-width:8}</style>
<path fill="none" stroke="black" d="M177.28,-365.22C159.85,-353.79 139.22,-336.68 129.36,-315.23 117.82,-290.09 118.69,-278.51 129.36,-253 146.95,-210.96 166.23,-208.77 202.36,-181 239.17,-152.71 263.43,-164.3 292.36,-128"/>
<path fill="none" stroke="black" d="M355.36,-72C351.2,-64.73 349.99,-55.92 350.17,-47.59"/>
<polygon fill="#7a24d0" stroke="black" points="353.64,-48.13 351.05,-37.86 346.67,-47.5 353.64,-48.13"/>
<path fill="none" stroke="black" d="M292.36,-126C313.76,-96.32 373.55,-104.75 355.36,-73"/>
</g>
<!-- reactk_model_context&#45;&gt;reactk -->
<g id="edge10" class="edge">
<title>reactk_model_context&#45;&gt;reactk</title><style>.edge>path:hover{stroke-width:8}</style>
<path fill="none" stroke="black" d="M219.51,-353.17C228.78,-333.78 241.74,-307.57 254.36,-285.11"/>
<path fill="none" stroke="black" d="M254.36,-283.11C277.2,-242.47 252.06,-219.49 278.36,-181 289.48,-164.73 307.37,-151.97 323.11,-143.06"/>
<polygon fill="#7a24d0" stroke="black" points="324.54,-146.26 331.71,-138.46 321.24,-140.08 324.54,-146.26"/>
</g>
<!-- reactk_model_context&#45;&gt;reactk_model -->
<g id="edge11" class="edge">
<title>reactk_model_context&#45;&gt;reactk_model</title><style>.edge>path:hover{stroke-width:8}</style>
<path fill="none" stroke="black" d="M254.36,-283.11C262.12,-269.32 262,-264.02 273.36,-253 288.02,-238.78 307.2,-226.82 324.09,-217.87"/>
<polygon fill="#7a24d0" stroke="black" points="325.57,-221.04 332.9,-213.39 322.4,-214.81 325.57,-221.04"/>
</g>
<!-- reactk_model_context&#45;&gt;reactk_model_component -->
<g id="edge12" class="edge">
<title>reactk_model_context&#45;&gt;reactk_model_component</title><style>.edge>path:hover{stroke-width:8}</style>
<path fill="none" stroke="black" d="M231.73,-361.17C248.4,-347.91 270.53,-330.31 289.3,-315.38"/>
<polygon fill="#7a24d0" stroke="black" points="291.37,-318.21 297.02,-309.24 287.01,-312.73 291.37,-318.21"/>
</g>
<!-- reactk_model_prop -->
<g id="node8" class="node">
<title>reactk_model_prop</title><style>.edge>path:hover{stroke-width:8}</style>
<ellipse fill="#7016ca" stroke="black" cx="358.36" cy="-677.01" rx="32.53" ry="31.11"/>
<text text-anchor="middle" x="358.36" y="-685.51" font-family="Helvetica,sans-Serif" font-size="10.00" fill="#ffffff">reactk.</text>
<text text-anchor="middle" x="358.36" y="-673.51" font-family="Helvetica,sans-Serif" font-size="10.00" fill="#ffffff">model.</text>
<text text-anchor="middle" x="358.36" y="-661.51" font-family="Helvetica,sans-Serif" font-size="10.00" fill="#ffffff">prop</text>
</g>
<!-- reactk_model_prop&#45;&gt;reactk_model -->
<g id="edge13" class="edge">
<title>reactk_model_prop&#45;&gt;reactk_model</title><style>.edge>path:hover{stroke-width:8}</style>
<path fill="none" stroke="black" d="M390.15,-669.02C420.04,-660.57 463.14,-643.14 483.36,-609.9 535.7,-523.87 511.36,-480.62 485.36,-383.34"/>
</g>
<!-- reactk_model_prop&#45;&gt;reactk_model_component -->
<g id="edge14" class="edge">
<title>reactk_model_prop&#45;&gt;reactk_model_component</title><style>.edge>path:hover{stroke-width:8}</style>
<path fill="none" stroke="black" d="M342.71,-649.23C325.21,-617.6 297.94,-562.81 287.36,-511.68 273.91,-446.63 294.81,-370.49 311.11,-325.12"/>
<polygon fill="#7016ca" stroke="black" points="314.31,-326.56 314.5,-315.96 307.75,-324.13 314.31,-326.56"/>
</g>
<!-- reactk_model_prop_dict -->
<g id="node9" class="node">
<title>reactk_model_prop_dict</title><style>.edge>path:hover{stroke-width:8}</style>
<ellipse fill="#7021bf" stroke="black" cx="335.36" cy="-480.56" rx="39.42" ry="31.11"/>
<text text-anchor="middle" x="335.36" y="-489.06" font-family="Helvetica,sans-Serif" font-size="10.00" fill="#ffffff">reactk.</text>
<text text-anchor="middle" x="335.36" y="-477.06" font-family="Helvetica,sans-Serif" font-size="10.00" fill="#ffffff">model.</text>
<text text-anchor="middle" x="335.36" y="-465.06" font-family="Helvetica,sans-Serif" font-size="10.00" fill="#ffffff">prop_dict</text>
</g>
<!-- reactk_model_prop&#45;&gt;reactk_model_prop_dict -->
<g id="edge15" class="edge">
<title>reactk_model_prop&#45;&gt;reactk_model_prop_dict</title><style>.edge>path:hover{stroke-width:8}</style>
<path fill="none" stroke="black" d="M348.79,-635.19C347.1,-626.86 345.52,-618.13 344.36,-609.9 340.33,-581.16 338.07,-548.54 336.83,-523.38"/>
<polygon fill="#7016ca" stroke="black" points="345.32,-635.69 350.82,-644.74 352.17,-634.23 345.32,-635.69"/>
<polygon fill="#7016ca" stroke="black" points="340.33,-523.37 336.38,-513.54 333.34,-523.69 340.33,-523.37"/>
</g>
<!-- reactk_model_prop_value -->
<g id="node10" class="node">
<title>reactk_model_prop_value</title><style>.edge>path:hover{stroke-width:8}</style>
<ellipse fill="#7523c8" stroke="black" cx="430.36" cy="-578.79" rx="43.66" ry="31.11"/>
<text text-anchor="middle" x="430.36" y="-587.29" font-family="Helvetica,sans-Serif" font-size="10.00" fill="#ffffff">reactk.</text>
<text text-anchor="middle" x="430.36" y="-575.29" font-family="Helvetica,sans-Serif" font-size="10.00" fill="#ffffff">model.</text>
<text text-anchor="middle" x="430.36" y="-563.29" font-family="Helvetica,sans-Serif" font-size="10.00" fill="#ffffff">prop_value</text>
</g>
<!-- reactk_model_prop&#45;&gt;reactk_model_prop_value -->
<g id="edge16" class="edge">
<title>reactk_model_prop&#45;&gt;reactk_model_prop_value</title><style>.edge>path:hover{stroke-width:8}</style>
<path fill="none" stroke="black" d="M383.8,-642.01C390.16,-633.51 397.01,-624.37 403.44,-615.77"/>
<polygon fill="#7016ca" stroke="black" points="381.19,-639.67 378,-649.77 386.79,-643.86 381.19,-639.67"/>
<polygon fill="#7016ca" stroke="black" points="406.12,-618.03 409.31,-607.93 400.51,-613.84 406.12,-618.03"/>
</g>
<!-- reactk_model_shadow_node -->
<g id="node11" class="node">
<title>reactk_model_shadow_node</title><style>.edge>path:hover{stroke-width:8}</style>
<ellipse fill="#6b35a1" stroke="black" cx="404.36" cy="-382.34" rx="53.21" ry="31.11"/>
<text text-anchor="middle" x="404.36" y="-390.84" font-family="Helvetica,sans-Serif" font-size="10.00" fill="#ffffff">reactk.</text>
<text text-anchor="middle" x="404.36" y="-378.84" font-family="Helvetica,sans-Serif" font-size="10.00" fill="#ffffff">model.</text>
<text text-anchor="middle" x="404.36" y="-366.84" font-family="Helvetica,sans-Serif" font-size="10.00" fill="#ffffff">shadow_node</text>
</g>
<!-- reactk_model_prop&#45;&gt;reactk_model_shadow_node -->
<g id="edge17" class="edge">
<title>reactk_model_prop&#45;&gt;reactk_model_shadow_node</title><style>.edge>path:hover{stroke-width:8}</style>
<path fill="none" stroke="black" d="M362.66,-645.91C366.42,-619.89 372.08,-581.27 377.36,-547.68 379.88,-531.65 380.72,-527.68 383.36,-511.68 388.14,-482.73 393.48,-450.11 397.58,-425"/>
<polygon fill="#7016ca" stroke="black" points="401.02,-425.61 399.18,-415.17 394.12,-424.48 401.02,-425.61"/>
</g>
<!-- reactk_model_prop_dict&#45;&gt;reactk_model -->
<g id="edge18" class="edge">
<title>reactk_model_prop_dict&#45;&gt;reactk_model</title><style>.edge>path:hover{stroke-width:8}</style>
<path fill="none" stroke="black" d="M400.36,-283.11C395.86,-263.47 386.66,-242.77 378.56,-226.94"/>
<polygon fill="#7021bf" stroke="black" points="381.68,-225.36 373.91,-218.17 375.5,-228.64 381.68,-225.36"/>
<path fill="none" stroke="black" d="M323.36,-381.34C330.72,-327.06 412.6,-338.5 400.36,-285.11"/>
</g>
<!-- reactk_model_prop_dict&#45;&gt;reactk_model_component -->
<g id="edge19" class="edge">
<title>reactk_model_prop_dict&#45;&gt;reactk_model_component</title><style>.edge>path:hover{stroke-width:8}</style>
<path fill="none" stroke="black" d="M327.63,-449.63C323.71,-430.63 320.35,-405.53 323.36,-383.34"/>
<path fill="none" stroke="black" d="M323.36,-381.34C325.77,-363.57 326.86,-343.8 327.32,-326.82"/>
<polygon fill="#7021bf" stroke="black" points="330.81,-327.16 327.51,-317.09 323.82,-327.02 330.81,-327.16"/>
</g>
<!-- reactk_model_prop_dict&#45;&gt;reactk_model_shadow_node -->
<g id="edge21" class="edge">
<title>reactk_model_prop_dict&#45;&gt;reactk_model_shadow_node</title><style>.edge>path:hover{stroke-width:8}</style>
<path fill="none" stroke="black" d="M354.4,-453.01C361.56,-443.03 369.83,-431.49 377.57,-420.71"/>
<polygon fill="#7021bf" stroke="black" points="380.32,-422.88 383.3,-412.71 374.63,-418.8 380.32,-422.88"/>
</g>
<!-- reactk_model_prop_value&#45;&gt;reactk_model -->
<g id="edge22" class="edge">
<title>reactk_model_prop_value&#45;&gt;reactk_model</title><style>.edge>path:hover{stroke-width:8}</style>
<path fill="none" stroke="black" d="M485.36,-381.34C470.63,-326.21 413.11,-340.73 400.36,-285.11"/>
<path fill="none" stroke="black" d="M447.36,-479.56C450.71,-433.7 497.23,-427.76 485.36,-383.34"/>
</g>
<!-- reactk_model_prop_value&#45;&gt;reactk_model_prop_dict -->
<g id="edge24" class="edge">
<title>reactk_model_prop_value&#45;&gt;reactk_model_prop_dict</title><style>.edge>path:hover{stroke-width:8}</style>
<path fill="none" stroke="black" d="M405.65,-552.76C393.92,-540.88 379.77,-526.55 367.25,-513.86"/>
<polygon fill="#7523c8" stroke="black" points="369.87,-511.54 360.36,-506.88 364.89,-516.46 369.87,-511.54"/>
</g>
<!-- reactk_model_prop_value&#45;&gt;reactk_model_shadow_node -->
<g id="edge25" class="edge">
<title>reactk_model_prop_value&#45;&gt;reactk_model_shadow_node</title><style>.edge>path:hover{stroke-width:8}</style>
<path fill="none" stroke="black" d="M447.36,-479.56C448.87,-458.97 440.69,-437.83 431.07,-420.63"/>
<polygon fill="#7523c8" stroke="black" points="434.22,-419.08 426.08,-412.3 428.22,-422.67 434.22,-419.08"/>
<path fill="none" stroke="black" d="M437.32,-547.65C441.26,-528.78 445.73,-503.9 447.36,-481.56"/>
</g>
<!-- reactk_model_shadow_node&#45;&gt;reactk_model -->
<g id="edge26" class="edge">
<title>reactk_model_shadow_node&#45;&gt;reactk_model</title><style>.edge>path:hover{stroke-width:8}</style>
<path fill="none" stroke="black" d="M405.92,-351.05C406.22,-331.91 405.33,-306.79 400.36,-285.11"/>
</g>
<!-- reactk_model_shadow_node&#45;&gt;reactk_model_component -->
<g id="edge27" class="edge">
<title>reactk_model_shadow_node&#45;&gt;reactk_model_component</title><style>.edge>path:hover{stroke-width:8}</style>
<path fill="none" stroke="black" d="M382.3,-353.76C374.03,-343.44 364.53,-331.56 355.77,-320.61"/>
<polygon fill="#6b35a1" stroke="black" points="358.56,-318.5 349.58,-312.88 353.1,-322.87 358.56,-318.5"/>
</g>
<!-- reactk_tk_font -->
<g id="node12" class="node">
<title>reactk_tk_font</title><style>.edge>path:hover{stroke-width:8}</style>
<ellipse fill="#8547c2" stroke="black" cx="182.36" cy="-284.11" rx="43.9" ry="18"/>
<text text-anchor="middle" x="182.36" y="-280.61" font-family="Helvetica,sans-Serif" font-size="10.00" fill="#ffffff">reactk.tk.font</text>
</g>
<!-- reactk_tk_font&#45;&gt;__init___py -->
<g id="edge28" class="edge">
<title>reactk_tk_font&#45;&gt;__init___py</title><style>.edge>path:hover{stroke-width:8}</style>
<path fill="none" stroke="black" d="M186.23,-266C190.96,-248.05 200.38,-219.75 216.36,-200"/>
<path fill="none" stroke="black" d="M216.36,-198C245.25,-162.3 263.74,-163.91 292.36,-128"/>
</g>
<!-- reactk_tk_font&#45;&gt;reactk -->
<g id="edge29" class="edge">
<title>reactk_tk_font&#45;&gt;reactk</title><style>.edge>path:hover{stroke-width:8}</style>
<path fill="none" stroke="black" d="M216.36,-198C230.53,-180.49 285.22,-156.09 321.63,-141.21"/>
<polygon fill="#8547c2" stroke="black" points="322.9,-144.46 330.87,-137.48 320.29,-137.97 322.9,-144.46"/>
</g>
<!-- reactk_tk_geometry -->
<g id="node13" class="node">
<title>reactk_tk_geometry</title><style>.edge>path:hover{stroke-width:8}</style>
<ellipse fill="#8547c2" stroke="black" cx="468.36" cy="-284.11" rx="39.95" ry="31.11"/>
<text text-anchor="middle" x="468.36" y="-292.61" font-family="Helvetica,sans-Serif" font-size="10.00" fill="#ffffff">reactk.</text>
<text text-anchor="middle" x="468.36" y="-280.61" font-family="Helvetica,sans-Serif" font-size="10.00" fill="#ffffff">tk.</text>
<text text-anchor="middle" x="468.36" y="-268.61" font-family="Helvetica,sans-Serif" font-size="10.00" fill="#ffffff">geometry</text>
</g>
<!-- reactk_tk_geometry&#45;&gt;__init___py -->
<g id="edge30" class="edge">
<title>reactk_tk_geometry&#45;&gt;__init___py</title><style>.edge>path:hover{stroke-width:8}</style>
<path fill="none" stroke="black" d="M498.89,-263.53C562.12,-222.84 701.22,-132.52 697.36,-128"/>
<path fill="none" stroke="black" d="M697.36,-126C651.17,-64.51 393.6,-139.73 355.36,-73"/>
</g>
<!-- reactk_tk_geometry&#45;&gt;reactk -->
<g id="edge31" class="edge">
<title>reactk_tk_geometry&#45;&gt;reactk</title><style>.edge>path:hover{stroke-width:8}</style>
<path fill="none" stroke="black" d="M525.36,-198C496.32,-154.16 434.26,-137.76 393.7,-131.63"/>
<polygon fill="#8547c2" stroke="black" points="394.25,-128.18 383.87,-130.31 393.31,-135.11 394.25,-128.18"/>
<path fill="none" stroke="black" d="M497.87,-262.74C518.38,-245.99 539.66,-221.59 525.36,-200"/>
</g>
<!-- reactk_tk_widget -->
<g id="node14" class="node">
<title>reactk_tk_widget</title><style>.edge>path:hover{stroke-width:8}</style>
<ellipse fill="#8547c2" stroke="black" cx="689.36" cy="-284.11" rx="32.53" ry="31.11"/>
<text text-anchor="middle" x="689.36" y="-292.61" font-family="Helvetica,sans-Serif" font-size="10.00" fill="#ffffff">reactk.</text>
<text text-anchor="middle" x="689.36" y="-280.61" font-family="Helvetica,sans-Serif" font-size="10.00" fill="#ffffff">tk.</text>
<text text-anchor="middle" x="689.36" y="-268.61" font-family="Helvetica,sans-Serif" font-size="10.00" fill="#ffffff">widget</text>
</g>
<!-- reactk_tk_widget&#45;&gt;__init___py -->
<g id="edge32" class="edge">
<title>reactk_tk_widget&#45;&gt;__init___py</title><style>.edge>path:hover{stroke-width:8}</style>
<path fill="none" stroke="black" d="M773.36,-198C765.28,-152.8 724.1,-165.33 697.36,-128"/>
<path fill="none" stroke="black" d="M713.31,-263.02C738.66,-241.23 774.87,-208.43 773.36,-200"/>
</g>
<!-- reactk_tk_widget&#45;&gt;reactk -->
<g id="edge33" class="edge">
<title>reactk_tk_widget&#45;&gt;reactk</title><style>.edge>path:hover{stroke-width:8}</style>
<path fill="none" stroke="black" d="M663.69,-264.5C658.32,-260.66 652.68,-256.67 647.36,-253 599.91,-220.19 591.7,-205.27 539.36,-181 490.71,-158.44 430.32,-143.27 392.29,-135.13"/>
<polygon fill="#8547c2" stroke="black" points="393.23,-131.75 382.73,-133.14 391.81,-138.6 393.23,-131.75"/>
</g>
<!-- reactk_tk_window -->
<g id="node15" class="node">
<title>reactk_tk_window</title><style>.edge>path:hover{stroke-width:8}</style>
<ellipse fill="#8547c2" stroke="black" cx="773.36" cy="-284.11" rx="33.59" ry="31.11"/>
<text text-anchor="middle" x="773.36" y="-292.61" font-family="Helvetica,sans-Serif" font-size="10.00" fill="#ffffff">reactk.</text>
<text text-anchor="middle" x="773.36" y="-280.61" font-family="Helvetica,sans-Serif" font-size="10.00" fill="#ffffff">tk.</text>
<text text-anchor="middle" x="773.36" y="-268.61" font-family="Helvetica,sans-Serif" font-size="10.00" fill="#ffffff">window</text>
</g>
<!-- reactk_tk_window&#45;&gt;__init___py -->
<g id="edge34" class="edge">
<title>reactk_tk_window&#45;&gt;__init___py</title><style>.edge>path:hover{stroke-width:8}</style>
<path fill="none" stroke="black" d="M775.91,-252.88C776.61,-237.02 776.46,-217.33 773.36,-200"/>
</g>
<!-- reactk_tk_window&#45;&gt;reactk -->
<g id="edge35" class="edge">
<title>reactk_tk_window&#45;&gt;reactk</title><style>.edge>path:hover{stroke-width:8}</style>
<path fill="none" stroke="black" d="M747.61,-263.61C742.34,-259.92 736.76,-256.22 731.36,-253 668.52,-215.55 652.31,-205.43 583.36,-181 518,-157.83 438.47,-142 392.7,-134.02"/>
<polygon fill="#8547c2" stroke="black" points="393.49,-130.6 383.04,-132.37 392.31,-137.5 393.49,-130.6"/>
</g>
<!-- reactk_tk_window_mount -->
<g id="node16" class="node">
<title>reactk_tk_window_mount</title><style>.edge>path:hover{stroke-width:8}</style>
<ellipse fill="#8547c2" stroke="black" cx="582.36" cy="-284.11" rx="56.39" ry="31.11"/>
<text text-anchor="middle" x="582.36" y="-292.61" font-family="Helvetica,sans-Serif" font-size="10.00" fill="#ffffff">reactk.</text>
<text text-anchor="middle" x="582.36" y="-280.61" font-family="Helvetica,sans-Serif" font-size="10.00" fill="#ffffff">tk.</text>
<text text-anchor="middle" x="582.36" y="-268.61" font-family="Helvetica,sans-Serif" font-size="10.00" fill="#ffffff">window_mount</text>
</g>
<!-- reactk_tk_window_mount&#45;&gt;__init___py -->
<g id="edge36" class="edge">
<title>reactk_tk_window_mount&#45;&gt;__init___py</title><style>.edge>path:hover{stroke-width:8}</style>
<path fill="none" stroke="black" d="M619.81,-260.7C665.54,-230.48 732.7,-175.04 697.36,-128"/>
</g>
<!-- reactk_tk_window_mount&#45;&gt;reactk -->
<g id="edge37" class="edge">
<title>reactk_tk_window_mount&#45;&gt;reactk</title><style>.edge>path:hover{stroke-width:8}</style>
<path fill="none" stroke="black" d="M562.61,-254.8C551.54,-238.8 537.54,-218.38 525.36,-200"/>
</g>
</g>
</svg>
